#!OML:ASF C:\ViconDB\ViconDB\414\Spring2016\041811\Spring2016.ASF
:FULLY-SPECIFIED
:DEGREES
247
root 9.3438 17.8631 -23.0615 -181.721 -3.14083 -179.163
lowerback 2.29929 -1.47933 -0.0386958
upperback 1.35855 -2.02912 1.52645
thorax 0.16012 -1.04531 1.62679
lowerneck -9.0571 -4.62383 -10.7031
upperneck 20.6022 -6.47381 14.5521
head 8.71753 -2.05166 6.2108
rclavicle 2.22887e-014 8.74653e-015
rhumerus -50.2736 -11.7308 -82.6063
rradius 40.7744
rwrist 30.4088
rhand -31.7655 -13.8279
rfingers 7.12502
rthumb -5.02227 -43.7484
lclavicle 2.22887e-014 8.74653e-015
lhumerus -35.6576 -1.48465 88.1938
lradius 34.9297
lwrist -28.9169
lhand -31.7542 16.608
lfingers 7.12502
lthumb -5.01143 46.5288
rfemur -23.4723 -14.4065 24.5809
rtibia 38.4804
rfoot -162.073 6.06941
rtoes -16.8605
lfemur 1.33825 3.46135 -11.2536
ltibia 51.3814
lfoot 11.1673 -7.80183
ltoes -11.5451
248
root 9.36504 17.8864 -23.2754 -181.799 -2.99996 -178.567
lowerback 2.20994 -1.34299 0.685478
upperback 1.42773 -1.84714 1.65944
thorax 0.257623 -0.955278 1.35041
lowerneck -9.00517 -4.68803 -10.6281
upperneck 20.4022 -6.5657 14.4835
head 8.64856 -2.10781 6.15322
rclavicle -1.71949e-014 1.55052e-014
rhumerus -49.5383 -11.7041 -82.6171
rradius 40.4274
rwrist 31.1086
rhand -31.387 -13.7834
rfingers 7.12502
rthumb -4.65682 -43.7122
lclavicle -1.71949e-014 1.55052e-014
lhumerus -35.968 -1.23415 88.2668
lradius 33.9896
lwrist -28.9695
lhand -32.0226 16.8007
lfingers 7.12502
lthumb -5.2705 46.7151
rfemur -22.2061 -15.0126 25.1345
rtibia 37.8044
rfoot -161.876 6.90298
rtoes -16.913
lfemur -0.670579 4.17303 -10.1073
ltibia 54.6701
lfoot 14.0504 -6.51634
ltoes -6.84553
249
root 9.39594 17.9085 -23.4757 -181.98 -3.16697 -177.824
lowerback 2.36801 -1.29991 1.4577
upperback 1.50795 -1.79091 1.83598
thorax 0.233224 -0.930038 1.10119
lowerneck -9.09279 -4.77938 -10.6929
upperneck 20.317 -6.69901 14.5897
head 8.66211 -2.16687 6.18397
rclavicle 2.94823e-014 5.1684e-015
rhumerus -48.6909 -11.6036 -82.6992
rradius 40.0333
rwrist 31.5849
rhand -30.9967 -13.7606
rfingers 7.12502
rthumb -4.27993 -43.6973
lclavicle 2.94823e-014 5.1684e-015
lhumerus -36.2106 -0.97016 88.3347
lradius 32.9161
lwrist -29.1943
lhand -32.2231 17.1835
lfingers 7.12502
lthumb -5.46415 47.093
rfemur -20.8092 -15.5536 25.8692
rtibia 37.0334
rfoot -161.979 7.45069
rtoes -17.1782
lfemur -2.71956 4.63167 -8.7719
ltibia 57.7834
lfoot 16.2343 -5.58996
ltoes -2.25826
250
root 9.42111 17.9317 -23.6703 -182.127 -3.19488 -177.477
lowerback 2.56438 -1.20031 1.80972
upperback 1.57913 -1.65895 1.93848
thorax 0.188894 -0.867234 1.01043
lowerneck -9.08458 -4.84661 -10.6878
upperneck 20.11 -6.78893 14.5493
head 8.60231 -2.22551 6.14868
rclavicle -2.20775e-014 3.02153e-014
rhumerus -47.9067 -11.6753 -82.6666
rradius 39.8683
rwrist 31.6598
rhand -31.6197 -13.5468
rfingers 7.12502
rthumb -4.88156 -43.4706
lclavicle -2.20775e-014 3.02153e-014
lhumerus -36.2982 -0.429517 88.3201
lradius 31.672
lwrist -29.557
lhand -32.2708 17.1832
lfingers 7.12502
lthumb -5.51015 47.0916
rfemur -19.4529 -15.7511 26.1395
rtibia 36.2849
rfoot -162.127 7.86287
rtoes -17.0068
lfemur -4.68119 5.11655 -8.02607
ltibia 60.6313
lfoot 15.8694 -4.737
ltoes -1.67439
251
root 9.4395 17.9483 -23.8617 -182.269 -2.99635 -177.184
lowerback 2.71246 -0.995024 2.15555
upperback 1.70352 -1.38922 2.01008
thorax 0.226762 -0.735251 0.885555
lowerneck -9.16961 -4.95579 -10.8271
upperneck 19.922 -6.95172 14.7603
head 8.59206 -2.29901 6.22276
rclavicle 9.4547e-015 -2.18663e-014
rhumerus -46.9699 -11.6296 -82.6277
rradius 39.6226
rwrist 32.3051
rhand -30.9258 -13.3769
rfingers 7.12502
rthumb -4.21153 -43.315
lclavicle 9.4547e-015 -2.18663e-014
lhumerus -36.2666 -0.202658 88.4306
lradius 30.4367
lwrist -29.8802
lhand -32.3256 17.8725
lfingers 7.12502
lthumb -5.5631 47.7795
rfemur -18.1161 -15.9472 26.3339
rtibia 35.5145
rfoot -161.965 8.35267
rtoes -17.25
lfemur -6.56022 5.89582 -7.39209
ltibia 63.2726
lfoot 13.7068 -4.26703
ltoes -3.53965
252
root 9.46443 17.9714 -24.0513 -182.447 -2.82222 -177.57
lowerback 2.97287 -0.800847 1.73832
upperback 1.8359 -1.1344 1.90983
thorax 0.222304 -0.610169 1.01302
lowerneck -9.20742 -3.53251 -11.1606
upperneck 19.2409 -7.44932 15.2527
head 8.42058 -3.49638 6.24323
rclavicle -2.78299e-015 8.34896e-015
rhumerus -46.0127 -11.1725 -82.9029
rradius 39.3416
rwrist 32.0553
rhand -31.2585 -13.4066
rfingers 7.12502
rthumb -4.53279 -43.3381
lclavicle -2.78299e-015 8.34896e-015
lhumerus -36.283 0.152894 88.4381
lradius 29.3981
lwrist -29.9006
lhand -32.0788 18.1004
lfingers 7.12502
lthumb -5.3248 48.0135
rfemur -16.7644 -15.8638 25.7836
rtibia 34.8611
rfoot -162.178 8.737
rtoes -16.9492
lfemur -8.31858 6.61132 -7.6137
ltibia 65.5487
lfoot 11.2436 -3.44219
ltoes -5.09244
253
root 9.48694 17.9862 -24.2369 -182.605 -2.56109 -177.043
lowerback 3.08663 -0.566431 2.23498
upperback 1.99701 -0.831186 2.06471
thorax 0.319034 -0.46317 0.885807
lowerneck -9.20266 -3.66656 -11.2865
upperneck 18.9236 -7.58063 15.4266
head 8.34697 -3.54416 6.30489
rclavicle -2.08724e-015 -1.59028e-014
rhumerus -44.9947 -11.0022 -82.981
rradius 38.9576
rwrist 32.5382
rhand -31.5289 -13.6556
rfingers 7.12502
rthumb -4.79389 -43.5814
lclavicle -2.08724e-015 -1.59028e-014
lhumerus -36.1809 0.608196 88.41
lradius 28.2497
lwrist -30.3436
lhand -32.0341 18.5002
lfingers 7.12502
lthumb -5.28163 48.4144
rfemur -15.4823 -15.7079 26.2812
rtibia 34.1735
rfoot -162.449 9.03961
rtoes -16.8322
lfemur -10.1271 7.46366 -6.76593
ltibia 67.6058
lfoot 8.85982 -2.7873
ltoes -5.25101
254
root 9.50295 18.007 -24.4202 -182.604 -2.17629 -177.458
lowerback 3.07938 -0.297226 1.8732
upperback 2.17299 -0.48417 1.91449
thorax 0.504814 -0.289981 0.923796
lowerneck -9.38064 -3.8034 -11.3562
upperneck 18.7479 -7.71773 15.5416
head 8.35205 -3.58721 6.33648
rclavicle 4.5472e-015 -1.63003e-014
rhumerus -43.931 -10.9378 -83.0591
rradius 38.7414
rwrist 33.2512
rhand -31.3131 -13.5243
rfingers 7.12502
rthumb -4.58546 -43.4546
lclavicle 4.5472e-015 -1.63003e-014
lhumerus -35.9837 1.70753 87.9326
lradius 26.9783
lwrist -31.6123
lhand -31.8534 18.2901
lfingers 7.12502
lthumb -5.10719 48.2086
rfemur -14.4119 -15.4393 25.7562
rtibia 33.6019
rfoot -162.593 9.40167
rtoes -16.7496
lfemur -11.9259 8.27403 -7.2098
ltibia 69.1972
lfoot 6.52229 -1.56055
ltoes -5.25859
255
root 9.52668 18.0189 -24.6094 -182.702 -1.91422 -177.184
lowerback 3.15426 -0.11158 2.02214
upperback 2.27612 -0.244544 1.98642
thorax 0.568435 -0.173148 0.908094
lowerneck -9.27729 -3.85923 -11.3583
upperneck 18.3718 -7.74945 15.661
head 8.21906 -3.59058 6.36731
rclavicle -2.83268e-015 2.82274e-014
rhumerus -42.93 -10.5351 -83.2924
rradius 38.3995
rwrist 33.423
rhand -31.7411 -13.5768
rfingers 7.12502
rthumb -4.99871 -43.4979
lclavicle -2.83268e-015 2.82274e-014
lhumerus -36.1149 2.50205 87.6257
lradius 25.9852
lwrist -32.364
lhand -31.5871 18.6932
lfingers 7.12502
lthumb -4.85002 48.6177
rfemur -13.2552 -15.2396 25.992
rtibia 33.0451
rfoot -162.909 9.70162
rtoes -16.7292
lfemur -13.6459 8.97664 -6.86766
ltibia 70.5025
lfoot 4.56201 -0.413389
ltoes -5.75504
256
root 9.54124 18.0336 -24.801 -182.727 -1.61013 -177.709
lowerback 3.19097 0.121261 1.56217
upperback 2.35782 0.0623631 1.79922
thorax 0.629986 -0.0198646 0.965787
lowerneck -9.29641 -3.95734 -11.5733
upperneck 18.231 -7.86712 15.8839
head 8.21252 -3.63986 6.46805
rclavicle -2.6339e-015 -2.50469e-014
rhumerus -41.9509 -10.4133 -83.3556
rradius 38.0889
rwrist 33.7963
rhand -31.5663 -13.4512
rfingers 7.12502
rthumb -4.82992 -43.3761
lclavicle -2.6339e-015 -2.50469e-014
lhumerus -36.3494 3.24597 87.2794
lradius 25.1597
lwrist -33.1561
lhand -31.602 18.8695
lfingers 7.12502
lthumb -4.86446 48.7937
rfemur -12.2105 -15.039 25.3064
rtibia 32.6429
rfoot -163.107 10.1448
rtoes -16.6564
lfemur -15.1969 9.59644 -7.59722
ltibia 71.3185
lfoot 2.72907 1.06645
ltoes -5.80169
257
root 9.56581 18.0378 -24.9636 -183.044 -1.21832 -178.2
lowerback 3.9215 0.390668 1.00748
upperback 2.42873 0.420525 1.62721
thorax 0.289177 0.152495 1.08751
lowerneck -9.28816 -4.05356 -11.5538
upperneck 18.0144 -7.94792 15.8733
head 8.15227 -3.6704 6.44601
rclavicle -7.97623e-015 -1.86858e-014
rhumerus -41.1245 -10.6718 -83.2971
rradius 37.983
rwrist 34.9493
rhand -31.3658 -13.4364
rfingers 7.12502
rthumb -4.63634 -43.3656
lclavicle -7.97623e-015 -1.86858e-014
lhumerus -36.5481 4.54124 86.5735
lradius 24.255
lwrist -34.4165
lhand -31.3862 18.8291
lfingers 7.12502
lthumb -4.65605 48.7579
rfemur -10.9968 -14.199 24.7661
rtibia 32.2409
rfoot -163.719 10.1074
rtoes -16.6081
lfemur -16.5781 10.1748 -8.24097
ltibia 71.8716
lfoot 1.21395 2.43274
ltoes -6.55718
258
root 9.58147 18.0465 -25.1474 -183.125 -0.80662 -178.503
lowerback 4.19714 0.62144 0.725937
upperback 2.40566 0.728783 1.48312
thorax 0.10606 0.306641 1.08375
lowerneck -9.24285 -4.09691 -11.6612
upperneck 17.9964 -8.01795 15.9764
head 8.15748 -3.70603 6.49398
rclavicle 9.91439e-015 -6.95746e-015
rhumerus -40.1663 -10.1679 -83.5591
rradius 37.5367
rwrist 35.1395
rhand -31.1875 -13.4833
rfingers 7.12502
rthumb -4.46421 -43.4162
lclavicle 9.91439e-015 -6.95746e-015
lhumerus -36.9835 5.71522 85.8649
lradius 23.5311
lwrist -35.4365
lhand -31.1398 18.822
lfingers 7.12502
lthumb -4.41818 48.7559
rfemur -9.97844 -13.7331 24.3681
rtibia 31.8903
rfoot -164.096 10.38
rtoes -16.5137
lfemur -17.9391 10.7935 -8.76919
ltibia 72.021
lfoot -0.0104639 3.52027
ltoes -5.89375
259
root 9.59795 18.0531 -25.3371 -183.139 -0.498243 -178.466
lowerback 4.2744 0.828998 0.84039
upperback 2.42464 1.00952 1.41836
thorax 0.0819052 0.448118 0.941004
lowerneck -9.19138 -4.16256 -11.7371
upperneck 17.8492 -8.07938 16.0349
head 8.11526 -3.73413 6.51828
rclavicle -5.34234e-015 2.5842e-015
rhumerus -39.2512 -10.1989 -83.5899
rradius 37.2849
rwrist 35.899
rhand -30.882 -13.1326
rfingers 7.12502
rthumb -4.16916 -43.0716
lclavicle -5.34234e-015 2.5842e-015
lhumerus -37.2738 6.09848 85.4921
lradius 22.9549
lwrist -35.4356
lhand -30.9349 19.0577
lfingers 7.12502
lthumb -4.22026 48.9956
rfemur -9.01573 -13.4278 24.38
rtibia 31.5108
rfoot -164.436 10.611
rtoes -16.4468
lfemur -19.3253 11.2516 -8.94895
ltibia 71.8768
lfoot -1.43509 4.23793
ltoes -6.29051
260
root 9.60813 18.058 -25.5244 -183.141 -0.217438 -178.582
lowerback 4.4631 0.971317 0.802625
upperback 2.36591 1.20608 1.30567
thorax -0.0840525 0.5485 0.834858
lowerneck -9.23681 -4.18717 -11.6262
upperneck 17.8977 -8.07045 15.8028
head 8.12437 -3.7322 6.41765
rclavicle 3.64024e-015 -2.5842e-015
rhumerus -38.3541 -9.51725 -83.9401
rradius 36.9294
rwrist 35.7685
rhand -31.1196 -13.1962
rfingers 7.12502
rthumb -4.39861 -43.1305
lclavicle 3.64024e-015 -2.5842e-015
lhumerus -37.854 6.76682 84.913
lradius 22.5192
lwrist -35.73
lhand -30.824 19.0318
lfingers 7.12502
lthumb -4.11316 48.9718
rfemur -8.04871 -13.2091 24.1945
rtibia 31.0869
rfoot -164.713 10.8669
rtoes -16.4242
lfemur -20.6456 11.4023 -9.39159
ltibia 71.4035
lfoot -2.71213 4.92117
ltoes -5.96265
